<?xml version="1.0" encoding="UTF-8" standalone="no" ?>
<!DOCTYPE svg PUBLIC "-//W3C//DTD SVG 1.1//EN" "http://www.w3.org/Graphics/SVG/1.1/DTD/svg11.dtd">
<svg xmlns="http://www.w3.org/2000/svg" xmlns:xlink="http://www.w3.org/1999/xlink" version="1.1" width="1080" height="1080" viewBox="0 0 1080 1080" xml:space="preserve">
<desc>Created with Fabric.js 5.2.4</desc>
<defs>
</defs>
<g transform="matrix(1 0 0 1 540 540)" id="e867058a-abae-4b4d-847a-a76f861bd72e"  >
<rect style="stroke: none; stroke-width: 1; stroke-dasharray: none; stroke-linecap: butt; stroke-dashoffset: 0; stroke-linejoin: miter; stroke-miterlimit: 4; fill: rgb(122,9,9); fill-rule: nonzero; opacity: 1; visibility: hidden;" vector-effect="non-scaling-stroke"  x="-540" y="-540" rx="0" ry="0" width="1080" height="1080" />
</g>
<g transform="matrix(1 0 0 1 540 540)" id="92ca6f76-5585-4de3-a7d6-ac101aa3618b"  >
</g>
<g transform="matrix(NaN NaN NaN NaN 0 0)"  >
<g style=""   >
</g>
</g>
<g transform="matrix(NaN NaN NaN NaN 0 0)"  >
<g style=""   >
</g>
</g>
<g transform="matrix(8.65 0 0 8.65 540 520.64)" id="52e3bba5-66a7-419d-b902-6b4add597e20"  >
<path style="stroke: rgb(0,0,0); stroke-width: 0; stroke-dasharray: none; stroke-linecap: butt; stroke-dashoffset: 0; stroke-linejoin: miter; stroke-miterlimit: 4; fill: rgb(193, 136, 47); fill-rule: nonzero; opacity: 1;" vector-effect="non-scaling-stroke"  transform=" translate(-59.67, -61.45)" d="M 30.52 0.05 L 116.11 0.05 L 116.11 103.1 C 115.96 105.61999999999999 112.7 105.67999999999999 109.17 105.52 L 29.32 105.52 C 21.32 106.25 24.17 116.89999999999999 29.32 116.34 L 112.41999999999999 116.34 L 112.41999999999999 112.67 L 119.35 112.67 L 119.35 118.89 C 119.35 121.09913899932317 117.55913899932317 122.89 115.35 122.89 L 29.67 122.89 C 17.67 123.06 13.720000000000002 122.42 13.720000000000002 113.64 L 13.720000000000002 100.92 L 4.56 100.92 C 2 100.92 0 98.59 0 95.73 C 0 92.87 2 90.54 4.56 90.54 L 13.719999999999999 90.54 L 13.719999999999999 82.26 L 4.56 82.26 C 2 82.26 0 79.94 0 77.07 C 0 74.19999999999999 2 71.88999999999999 4.56 71.88999999999999 L 13.719999999999999 71.88999999999999 L 13.719999999999999 63.6 L 4.56 63.6 C 2 63.6 0 61.28 0 58.42 C 0 55.56 2 53.230000000000004 4.56 53.230000000000004 L 13.719999999999999 53.230000000000004 L 13.719999999999999 45 L 4.56 45 C 2 45 0 42.63 0 39.76 C 0 36.88999999999999 2 34.57 4.56 34.57 L 13.719999999999999 34.57 L 13.719999999999999 26.29 L 4.56 26.29 C 2 26.29 0 24 0 21.11 C 0 18.22 2 15.919999999999998 4.56 15.919999999999998 L 13.719999999999999 15.919999999999998 C 13.7 2.65 13.53 -0.47 30.52 0.05 Z M 46.59 41.91 C 45.31974507538918 41.91 44.290000000000006 40.880254924610824 44.290000000000006 39.61 C 44.290000000000006 38.339745075389175 45.31974507538918 37.309999999999995 46.59 37.309999999999995 L 80.4 37.309999999999995 C 81.67025492461083 37.309999999999995 82.7 38.33974507538917 82.7 39.60999999999999 C 82.7 40.880254924610824 81.67025492461083 41.91 80.4 41.91 Z M 46.59 29.79 C 45.37582475390753 29.70998317782683 44.431904575309645 28.701809031875754 44.431904575309645 27.485 C 44.431904575309645 26.268190968124244 45.37582475390753 25.26001682217317 46.59 25.18 L 86.47 25.18 C 87.32973307177546 25.123341697549805 88.14954659639979 25.549861510552642 88.596608298634 26.286398646301055 C 89.04367000086819 27.02293578204947 89.04367000086819 27.94706421795053 88.596608298634 28.683601353698943 C 88.14954659639979 29.420138489447357 87.32973307177546 29.846658302450194 86.47 29.79 Z M 40.69 15 L 92.38 15 C 94.2145658315327 15.01092032432974 95.69907967567025 16.4954341684673 95.71 18.33 L 95.71 48.81 C 95.69380137538802 50.64399211124423 94.21393529506616 52.12830223384933 92.38 52.150000000000006 L 40.69 52.150000000000006 C 38.851554763352596 52.13903210590669 37.36545527775786 50.64846985909396 37.36 48.81 L 37.36 18.28 C 37.3926436073604 16.462726413527943 38.87244054166888 15.005148652407279 40.69 15 Z" stroke-linecap="round" />
</g>
</svg>